<svg width="980" height="234" viewBox="0 0 980 234" fill="none" xmlns="http://www.w3.org/2000/svg">
<path d="M0 60.001C0 26.8639 26.8629 0.000976562 60 0.000976562H970C975.523 0.000976562 980 4.47813 980 10.001V174.001C980 207.138 953.137 234.001 920 234.001H10C4.47715 234.001 0 229.524 0 224.001V60.001Z" fill="white"/>
<g filter="url(#filter0_f)">
<rect x="59" y="51.001" width="136" height="160" rx="32" fill="url(#paint0_linear)"/>
</g>
<path d="M324.5 143.001V119.023C324.5 116.784 324.444 114.908 324.332 113.396C324.248 111.885 324.024 110.345 323.66 108.777C323.324 107.21 322.834 105.978 322.19 105.082C321.575 104.158 320.707 103.416 319.587 102.856C318.467 102.269 317.123 101.975 315.556 101.975C312.476 101.975 309.845 102.8 307.661 104.452C305.506 106.104 303.966 108.427 303.042 111.423C302.79 113.438 302.664 115.594 302.664 117.89V143.001H295.651V118.268C295.651 116.196 295.581 114.404 295.441 112.893C295.301 111.353 295.035 109.869 294.644 108.441C294.252 106.986 293.72 105.81 293.048 104.914C292.404 104.018 291.536 103.304 290.444 102.772C289.353 102.241 288.051 101.975 286.539 101.975C283.18 101.975 280.352 102.828 278.057 104.536C275.789 106.244 274.263 108.511 273.479 111.339C273.228 113.494 273.102 115.832 273.102 118.352V143.001H266.089C266.033 114.194 266.005 98.8392 266.005 96.9355H271.884L272.766 103.528C274.165 101.401 276.153 99.609 278.729 98.1533C281.304 96.6976 284.229 95.9697 287.505 95.9697C289.213 95.9697 290.78 96.1517 292.208 96.5156C293.664 96.8516 294.868 97.2855 295.819 97.8174C296.799 98.3493 297.667 98.9932 298.423 99.749C299.179 100.477 299.767 101.205 300.187 101.933C300.606 102.632 300.956 103.374 301.236 104.158C304.596 98.6992 309.733 95.9697 316.647 95.9697C321.771 95.9697 325.522 97.4395 327.901 100.379C330.309 103.29 331.513 107.616 331.513 113.354V143.001H324.5ZM357.251 138.298C360.582 138.298 363.507 137.388 366.027 135.568C368.574 133.721 370.212 131.243 370.94 128.136V120.367C370.8 120.367 369.946 120.437 368.378 120.577C366.839 120.717 365.831 120.801 365.355 120.829C359.28 121.361 355.039 122.355 352.631 123.811C350.252 125.266 349.062 127.604 349.062 130.823C349.062 133.287 349.79 135.148 351.246 136.408C352.701 137.668 354.703 138.298 357.251 138.298ZM372.494 143.001C372.074 141.209 371.668 139.278 371.276 137.206C368.728 139.754 366.335 141.517 364.095 142.497C361.856 143.477 359.224 143.967 356.201 143.967C351.89 143.967 348.418 142.847 345.787 140.607C343.183 138.34 341.881 135.092 341.881 130.865C341.881 126.162 343.659 122.677 347.214 120.409C350.798 118.142 355.949 116.728 362.668 116.168C363.591 116.084 364.977 115.972 366.825 115.832C368.7 115.664 370.1 115.538 371.024 115.454V111.381C371.024 108.133 370.268 105.726 368.756 104.158C367.245 102.59 364.865 101.807 361.618 101.807C357.083 101.807 352.505 102.926 347.886 105.166C347.746 104.83 347.382 103.864 346.794 102.269C346.207 100.645 345.899 99.805 345.871 99.749C347.914 98.6012 350.336 97.6914 353.135 97.0195C355.963 96.3197 358.832 95.9697 361.744 95.9697C367.483 95.9697 371.612 97.2295 374.131 99.749C376.679 102.241 377.953 106.496 377.953 112.515V143.001H372.494ZM411.459 137.92C416.078 137.92 419.508 136.436 421.747 133.469C424.015 130.501 425.149 126.26 425.149 120.745C425.149 114.53 424.057 109.855 421.873 106.72C419.718 103.556 416.218 101.975 411.375 101.975C409.22 101.975 407.316 102.437 405.664 103.36C404.012 104.284 402.683 105.572 401.675 107.224C400.667 108.875 399.897 110.779 399.365 112.935C398.861 115.062 398.609 117.4 398.609 119.947C398.609 123.531 399.043 126.638 399.911 129.27C400.807 131.901 402.235 134.001 404.194 135.568C406.154 137.136 408.576 137.92 411.459 137.92ZM425.275 136.324C423.763 138.648 421.747 140.495 419.228 141.867C416.708 143.239 413.895 143.925 410.787 143.925C404.712 143.925 399.953 141.769 396.51 137.458C393.067 133.119 391.345 127.226 391.345 119.779C391.345 112.669 393.095 106.93 396.594 102.562C400.093 98.1673 404.782 95.9697 410.661 95.9697C413.713 95.9697 416.582 96.6416 419.27 97.9854C421.985 99.3011 424.015 101.079 425.359 103.318L425.233 99.3291V79.0469L432.161 78.627V143.001H426.198L425.275 136.324ZM474.36 105.46C472.316 102.996 469.503 101.765 465.92 101.765C462.336 101.765 459.411 103.038 457.143 105.586C454.876 108.105 453.546 111.563 453.154 115.958H477.467C477.467 111.395 476.432 107.896 474.36 105.46ZM467.305 143.967C460.615 143.967 455.338 141.839 451.474 137.584C447.639 133.329 445.721 127.506 445.721 120.115C445.721 112.977 447.583 107.196 451.306 102.772C455.03 98.3213 459.929 96.0537 466.004 95.9697C471.715 95.9697 476.236 97.9294 479.567 101.849C482.926 105.74 484.606 110.947 484.606 117.47C484.606 117.806 484.592 118.422 484.564 119.317C484.564 120.213 484.564 120.857 484.564 121.249H452.944C453.028 126.484 454.372 130.571 456.975 133.511C459.607 136.422 463.134 137.878 467.557 137.878C472.428 137.878 477.313 136.59 482.213 134.015L483.304 139.684C478.629 142.539 473.296 143.967 467.305 143.967ZM562.495 143.001C556.028 122.341 552.025 109.477 550.485 104.41C549.617 107.49 548.624 110.821 547.504 114.404C546.384 117.988 545.404 121.067 544.564 123.643C543.724 126.218 542.633 129.549 541.289 133.637C539.945 137.724 538.923 140.845 538.223 143.001H530.665L517.521 96.9355H524.786L534.654 134.645C536.026 130.165 540.057 117.596 546.748 96.9355H554.684C561.347 118.044 565.266 130.571 566.442 134.519L576.184 96.9355H583.365L570.096 143.001H562.495ZM601.88 96.9355V143.001H594.826V96.9355H601.88ZM601.88 80.1807V88.4951H594.826V80.1807H601.88ZM633.245 143.841C628.71 143.841 625.49 142.735 623.587 140.523C621.683 138.312 620.675 134.743 620.563 129.815V102.143H613.719L614.013 97.5234L620.521 96.9355L622.915 86.3955L627.534 86.2275V96.9355H640.342V102.143H627.534V128.556C627.534 132.055 628.066 134.519 629.13 135.946C630.194 137.374 632.013 138.088 634.589 138.088C635.513 138.088 637.514 137.864 640.594 137.416L640.888 142.959C637.556 143.547 635.009 143.841 633.245 143.841ZM682.834 143.001V115.16C682.834 110.541 682.093 107.182 680.609 105.082C679.153 102.982 676.592 101.933 672.924 101.933C669.397 101.933 666.415 102.814 663.98 104.578C661.572 106.342 660.005 108.623 659.277 111.423C659.025 113.522 658.899 115.86 658.899 118.436V143.001H651.886V79.0469L658.899 78.627V97.3555C658.899 98.9512 658.843 100.925 658.731 103.276C662.678 98.4053 667.913 95.9697 674.436 95.9697C684.71 95.9697 689.847 102.003 689.847 114.068V143.001H682.834ZM730.204 143.001V93.6318H741.974V143.001H730.204ZM730.204 86.4443V76.3818H742.019V86.4443H730.204ZM779.57 143.944C772.023 143.944 766.138 141.698 761.916 137.206C757.723 132.714 755.627 126.29 755.627 117.935C755.627 109.849 757.828 103.575 762.23 99.1123C766.662 94.6501 772.487 92.4189 779.705 92.4189C785.485 92.4189 790.366 93.6618 794.349 96.1475L791.564 104.548C787.491 102.422 783.703 101.358 780.199 101.358C776.216 101.358 773.071 102.781 770.765 105.626C768.489 108.471 767.351 112.619 767.351 118.069C767.351 123.58 768.474 127.772 770.72 130.647C772.996 133.522 776.201 134.96 780.334 134.96C784.646 134.96 788.794 133.687 792.777 131.142L793.9 140.081C791.834 141.459 789.692 142.447 787.476 143.046C785.26 143.645 782.625 143.944 779.57 143.944ZM828.824 143.944C820.888 143.944 814.704 141.668 810.271 137.116C805.869 132.534 803.668 126.215 803.668 118.159C803.668 110.313 805.749 104.069 809.912 99.4268C814.075 94.7848 819.75 92.4489 826.937 92.4189C833.736 92.4189 839.006 94.5452 842.75 98.7979C846.523 103.05 848.41 108.696 848.41 115.733C848.41 116.243 848.395 117.066 848.365 118.204C848.365 119.342 848.365 120.181 848.365 120.72H815.527C815.647 125.332 816.905 128.91 819.301 131.456C821.727 133.972 825.051 135.229 829.273 135.229C834.664 135.229 839.845 133.822 844.816 131.007L846.478 139.362C841.537 142.417 835.652 143.944 828.824 143.944ZM815.752 113.308H837.314C837.314 109.295 836.401 106.21 834.574 104.054C832.747 101.897 830.217 100.819 826.982 100.819C823.958 100.819 821.397 101.868 819.301 103.964C817.234 106.06 816.051 109.175 815.752 113.308ZM878.236 143.944C871.798 143.944 866.736 141.578 863.053 136.847C859.369 132.115 857.527 125.796 857.527 117.89C857.527 110.223 859.354 104.069 863.008 99.4268C866.691 94.7549 871.753 92.4189 878.191 92.4189C885.199 92.4189 890.156 94.9046 893.061 99.876C892.761 96.9411 892.611 94.111 892.611 91.3857V75.4385L904.381 74.6748V143.001H894.184L892.881 136.263C892.372 137.071 891.893 137.775 891.443 138.374C891.024 138.943 890.395 139.617 889.557 140.396C888.718 141.144 887.805 141.758 886.816 142.237C885.858 142.687 884.63 143.076 883.133 143.405C881.665 143.765 880.033 143.944 878.236 143.944ZM881.022 135.005C888.928 135.005 892.941 129.629 893.061 118.878C893.061 112.799 892.042 108.366 890.006 105.581C887.969 102.796 884.93 101.403 880.887 101.403C877.353 101.403 874.523 102.826 872.397 105.671C870.3 108.486 869.252 112.649 869.252 118.159C869.252 123.64 870.3 127.817 872.397 130.692C874.523 133.567 877.398 135.005 881.022 135.005Z" fill="black"/>
<rect x="42" y="31.001" width="169.895" height="169.895" rx="49.8148" fill="url(#paint1_linear)"/>
<path fill-rule="evenodd" clip-rule="evenodd" d="M182.623 65.7469L154.487 94.3529L148.357 88.3238L176.493 59.7178L182.623 65.7469ZM156.279 65.9649L114.075 108.874L107.945 102.845L150.149 59.9358L156.279 65.9649ZM94.6314 89.8778C99.9568 84.4947 105.281 79.1127 116.2 68.0108L122.33 74.0399C111.403 85.1501 106.072 90.5383 100.743 95.9252C96.3423 100.374 91.9421 104.822 84.3843 112.498L116.361 120.856L142.329 94.4538L148.459 100.483L122.491 126.885L131.398 158.793L173.536 116.706L179.612 122.789L130.503 171.839L84.6662 159.211L71.2725 113.565L73.0439 111.764C83.9715 100.653 89.3024 95.2646 94.6314 89.8778ZM123.05 160.868L114.204 129.179L82.3733 120.859L91.5678 152.194L123.05 160.868ZM170.784 104.351L177.906 97.2289L171.826 91.1492L164.679 98.2966L134.508 128.971L140.638 135L170.784 104.351Z" fill="url(#paint2_linear)"/>
<defs>
<filter id="filter0_f" x="55" y="47.001" width="144" height="168" filterUnits="userSpaceOnUse" color-interpolation-filters="sRGB">
<feFlood flood-opacity="0" result="BackgroundImageFix"/>
<feBlend mode="normal" in="SourceGraphic" in2="BackgroundImageFix" result="shape"/>
<feGaussianBlur stdDeviation="2" result="effect1_foregroundBlur"/>
</filter>
<linearGradient id="paint0_linear" x1="127" y1="51.001" x2="127" y2="211.001" gradientUnits="userSpaceOnUse">
<stop offset="0.0520833"/>
<stop offset="1" stop-opacity="0.08"/>
</linearGradient>
<linearGradient id="paint1_linear" x1="212" y1="31.001" x2="57.5" y2="189.001" gradientUnits="userSpaceOnUse">
<stop stop-color="#00A3FF"/>
<stop offset="1" stop-color="#3300FF"/>
</linearGradient>
<linearGradient id="paint2_linear" x1="86.0981" y1="158.278" x2="206.014" y2="35.3266" gradientUnits="userSpaceOnUse">
<stop stop-color="white"/>
<stop offset="1" stop-color="white"/>
</linearGradient>
</defs>
</svg>